<?xml version="1.0" encoding="iso-8859-1"?>
<!-- Uploaded to: SVG Repo, www.svgrepo.com, Generator: SVG Repo Mixer Tools -->
<svg fill="#000000" height="25px" width="25px" version="1.1" id="Capa_1" xmlns="http://www.w3.org/2000/svg" xmlns:xlink="http://www.w3.org/1999/xlink"
	 viewBox="0 0 489.9 489.9" xml:space="preserve">
<g>
	<g>
		<g>
			<path d="M37.9,413.25h36.3h341.5H452c21,0,37.9-17,37.9-37.9v-23.3h-30.6h-1.7v-241c0-19-15.4-34.4-34.4-34.4H66.6
				c-19,0-34.4,15.4-34.4,34.4v241h-1.6H0v23.3C0,396.25,17,413.25,37.9,413.25z M79.1,123.55h331.8v228.5h-120v2.3
				c0,7.2-5.8,13-13,13H212c-7.2,0-13-5.8-13-13v-2.3H79.1V123.55z M239.6,321.35l-68.8-68.8c-9.6-9.6-14.8-22.2-14.8-35.7
				s5.2-26.2,14.8-35.7c9.5-9.5,22.2-14.8,35.7-14.8s26.2,5.3,35.8,14.8l2.8,2.8l2.8-2.8c9.6-9.6,22.3-14.8,35.8-14.8
				s26.2,5.3,35.7,14.8c9.6,9.6,14.8,22.3,14.8,35.8s-5.3,26.2-14.8,35.7l-68.7,68.7c-1.4,1.4-3.4,2.3-5.5,2.3
				C243,323.65,241.1,322.85,239.6,321.35z"/>
		</g>
	</g>
</g>
</svg>